<?xml version="1.0" encoding="utf-8"?>
<!-- Generator: Adobe Illustrator 20.1.0, SVG Export Plug-In . SVG Version: 6.00 Build 0)  -->
<svg version="1.1" id="Layer_1" xmlns="http://www.w3.org/2000/svg" xmlns:xlink="http://www.w3.org/1999/xlink" x="0px" y="0px"
	 viewBox="0 0 266.9 266.9" style="enable-background:new 0 0 266.9 266.9;" xml:space="preserve">
<style type="text/css">
	.st0{fill:url(#Blue_2_);}
</style>
<linearGradient id="Blue_2_" gradientUnits="userSpaceOnUse" x1="133.4465" y1="4.588" x2="133.4465" y2="262.307">
	<stop  offset="0" style="stop-color:#FFFFFF"/>
	<stop  offset="7.982147e-02" style="stop-color:#DBDBDB"/>
	<stop  offset="0.2207" style="stop-color:#A2A2A2"/>
	<stop  offset="0.3619" style="stop-color:#707070"/>
	<stop  offset="0.5002" style="stop-color:#484848"/>
	<stop  offset="0.635" style="stop-color:#292929"/>
	<stop  offset="0.7653" style="stop-color:#121212"/>
	<stop  offset="0.8893" style="stop-color:#050505"/>
	<stop  offset="1" style="stop-color:#000000"/>
</linearGradient>
<path id="Blue_1_" class="st0" d="M248.1,262.3c7.9,0,14.2-6.4,14.2-14.2V18.8c0-7.9-6.4-14.2-14.2-14.2H18.8
	C11,4.6,4.6,11,4.6,18.8v229.3c0,7.9,6.4,14.2,14.2,14.2H248.1z"/>
<path id="f" d="M182.4,262.3v-99.8h33.5l5-38.9h-38.5V98.8c0-11.3,3.1-18.9,19.3-18.9l20.6,0V45c-3.6-0.5-15.8-1.5-30-1.5
	c-29.7,0-50,18.1-50,51.4v28.7h-33.6v38.9h33.6v99.8H182.4z"/>
</svg>
